<?xml version="1.0" encoding="utf-8"?>
<!-- Generator: Adobe Illustrator 24.3.0, SVG Export Plug-In . SVG Version: 6.00 Build 0)  -->
<svg version="1.1" xmlns="http://www.w3.org/2000/svg" xmlns:xlink="http://www.w3.org/1999/xlink" x="0px" y="0px"
	 viewBox="0 0 1972 1100" style="enable-background:new 0 0 1972 1100;" xml:space="preserve">
<style type="text/css">
	.st0{fill:#003DA6;}
	.st1{fill:#FFFFFF;}
</style>
<g id="LOGOBÜHNE">
	<g>
		<rect y="0" class="st0" width="1972" height="1100"/>
	</g>
</g>
<g id="SCHRIFTZUG">
	<g>
		<polygon class="st1" points="560.153,496.595 402.977,496.595 402.977,300 300,300 300,800 402.977,800 402.977,582.508 
			560.153,582.508 560.153,800 661.582,800 661.582,300 560.153,300 		"/>
		<polygon class="st1" points="1147.047,650.619 1064.201,300 963.546,300 882.248,650.619 814.113,300 706.49,300 819.533,800 
			927.93,800 1009.228,448.607 1093.623,800 1202.794,800 1316.612,300 1213.634,300 		"/>
		<polygon class="st1" points="1672,300 1349.131,300 1349.131,388.235 1545.02,388.235 1331.323,744.272 1331.323,800 
			1664.257,800 1664.257,710.991 1462.948,710.991 1672,366.564 		"/>
	</g>
</g>
</svg>
